<?xml version="1.0" encoding="utf-8"?>
<svg xmlns="http://www.w3.org/2000/svg" xmlns:xlink="http://www.w3.org/1999/xlink" id="Layer_1" x="0px" y="0px" viewBox="0 0 380 68" style="enable-background:new 0 0 380 68;" xml:space="preserve">
<style type="text/css">
	.st0{clip-path:url(#SVGID_2_);fill:#7451EB;}
</style>
<g>
	<g>
		<defs>
			<rect id="SVGID_1_" x="2" y="20" width="376.1" height="28.7"/>
		</defs>
		<clipPath id="SVGID_2_">
			<use xlink:href="#SVGID_1_" style="overflow:visible;"/>
		</clipPath>
		<path class="st0" d="M337.8,38.2L329,20.6h-6.2v27.6h6.6V36l6.5,12.1h3.9l6.5-12.1v12.1h6.6V20.6h-6.2L337.8,38.2L337.8,38.2z     M298.2,34.4c0,4,3.2,7.3,7.3,7.3c4,0,7.3-3.2,7.3-7.3c0-4-3.2-7.3-7.3-7.3C301.4,27.1,298.2,30.3,298.2,34.4L298.2,34.4z     M305.4,20c7.9,0,14.3,6.4,14.3,14.3c0,7.9-6.4,14.3-14.3,14.3c-7.9,0-14.3-6.4-14.3-14.3C291.1,26.4,297.5,20,305.4,20L305.4,20z     M267.1,34.4c0,4,3.2,7.3,7.3,7.3c4,0,7.3-3.2,7.3-7.3c0-4-3.2-7.3-7.3-7.3C270.4,27.1,267.1,30.3,267.1,34.4L267.1,34.4z     M274.4,20c7.9,0,14.3,6.4,14.3,14.3c0,7.9-6.4,14.3-14.3,14.3c-7.9,0-14.3-6.4-14.3-14.3C260,26.4,266.5,20,274.4,20L274.4,20z     M240.9,26.7h4.2c1.5,0,2.7,0.4,3.4,1.1c0.8,0.7,1.2,1.7,1.2,3c0,1.3-0.4,2.3-1.2,3c-0.8,0.7-1.9,1-3.4,1h-4.2V26.7L240.9,26.7z     M257.7,48.2l-5.8-8.5c1.7-0.8,3-2,3.9-3.4c0.9-1.5,1.4-3.3,1.4-5.4c0-2.1-0.5-3.9-1.4-5.4c-0.9-1.5-2.3-2.7-4-3.5    c-1.7-0.8-3.8-1.2-6.2-1.2h-12v27.6h7.3v-7.2h3.5l4.9,7.2H257.7L257.7,48.2z M124.7,40.2l4.8,5.8c-2.4,1.7-5.3,2.7-8.4,2.7    c-7.9,0-14.4-6.4-14.4-14.3c0-7.9,6.4-14.4,14.4-14.4c3.1,0,6.1,1,8.4,2.7l-4.8,5.8c-1-0.6-2.3-1-3.6-1c-3.8,0-6.9,3.1-6.9,6.9    c0,3.8,3.1,6.8,6.9,6.8C122.5,41.2,123.7,40.8,124.7,40.2L124.7,40.2z M24.8,34.4c0,7.9-6.4,14.3-14.4,14.3c-3.2,0-6.1-1-8.4-2.7    l4.8-5.8c1,0.6,2.3,1,3.6,1c3.8,0,6.9-3.1,6.9-6.8c0-3.8-3.1-6.9-6.9-6.9c-1.3,0-2.5,0.4-3.6,1L2,22.7C4.4,21,7.3,20,10.4,20    C18.4,20,24.8,26.4,24.8,34.4L24.8,34.4z M206.4,39.8c0,1.7-0.4,3.2-1.3,4.5c-0.9,1.3-2.2,2.4-3.9,3.2c-1.7,0.8-3.9,1.2-6.4,1.2    c-2.1,0-4.2-0.3-6.2-0.8c-2-0.5-3.6-1.3-4.9-2.2l4-4.8c0.8,0.4,1.6,0.7,2.5,1c1.5,0.5,3.1,0.8,4.6,0.8c2.8,0,4.3-0.8,4.3-2.2    c0-0.8-0.4-1.4-1.2-1.8c-0.8-0.4-2.1-0.8-3.9-1.2c-2-0.4-3.6-0.9-4.9-1.4c-1.3-0.5-2.5-1.3-3.4-2.5c-0.9-1.1-1.4-2.7-1.4-4.6    c0-1.7,0.4-3.2,1.3-4.5c0.9-1.4,2.2-2.4,3.9-3.2c1.7-0.8,3.9-1.2,6.4-1.2c1.7,0,3.4,0.2,5.1,0.6c1.7,0.4,3.1,1,4.4,1.8l-4.1,4.9    c-1.9-0.8-3.7-1.2-5.5-1.2c-1.5,0-2.5,0.2-3.2,0.7c-0.7,0.5-1,1.1-1,1.8c0,0.7,0.4,1.3,1.2,1.7c0.8,0.4,2.1,0.8,3.9,1.1    c2,0.4,3.7,0.9,5,1.4c1.3,0.5,2.4,1.3,3.4,2.4C205.9,36.4,206.4,37.9,206.4,39.8L206.4,39.8z M171.1,37l-3.4-8.8l-3.4,8.8H171.1    L171.1,37z M183.1,48.2h-7.7l-2.1-5.4h-11.1l-2.1,5.4h-7.6l11.6-27.6h7.3L183.1,48.2L183.1,48.2z M151,42v6.2h-18.6V20.6h7.4V42    H151L151,42z M103.7,20.6v27.6h-6.1L86.1,33.4v14.7h-7.3V20.6h6.1l11.6,14.7V20.6H103.7L103.7,20.6z M75.4,42.1v6H54.5V20.6h20.4    v6h-13v4.7h10.4v5.8H61.8v5H75.4L75.4,42.1z M44,30.8c0-1.3-0.4-2.3-1.2-3c-0.8-0.7-1.9-1.1-3.4-1.1h-4.1v8.1h4.1    c1.5,0,2.7-0.3,3.4-1C43.6,33,44,32.1,44,30.8L44,30.8z M51.5,30.8c0,2.1-0.5,3.9-1.4,5.4c-0.9,1.5-2.3,2.7-4,3.5    c-1.7,0.8-3.8,1.2-6.2,1.2h-4.6v7.2h-7.4V20.6h12c2.4,0,4.4,0.4,6.2,1.2c1.7,0.8,3.1,2,4,3.5C51,26.9,51.5,28.7,51.5,30.8    L51.5,30.8z M378.1,39.8c0,1.7-0.4,3.2-1.3,4.5c-0.9,1.3-2.2,2.4-3.9,3.2c-1.7,0.8-3.9,1.2-6.4,1.2c-2.1,0-4.2-0.3-6.2-0.8    c-2-0.5-3.6-1.3-4.9-2.2l0,0l4-4.8c0.8,0.4,1.6,0.7,2.5,1c1.6,0.5,3.1,0.8,4.6,0.8c2.9,0,4.3-0.8,4.3-2.2c0-0.8-0.4-1.4-1.2-1.8    c-0.8-0.4-2.1-0.8-3.9-1.2c-2-0.4-3.6-0.9-4.9-1.4c-1.3-0.5-2.5-1.3-3.4-2.5c-1-1.1-1.4-2.7-1.4-4.6c0-1.7,0.4-3.2,1.3-4.5    c0.9-1.4,2.2-2.4,3.9-3.2c1.7-0.8,3.9-1.2,6.4-1.2c1.7,0,3.4,0.2,5.1,0.6c1.7,0.4,3.1,1,4.4,1.8l-4.1,4.9    c-1.9-0.8-3.7-1.2-5.4-1.2c-1.5,0-2.6,0.2-3.2,0.7c-0.7,0.5-1,1.1-1,1.8c0,0.7,0.4,1.3,1.2,1.7c0.8,0.4,2.1,0.8,3.9,1.1    c2,0.4,3.7,0.9,5,1.4c1.3,0.5,2.5,1.3,3.4,2.4C377.6,36.4,378.1,37.9,378.1,39.8L378.1,39.8z M230.5,39.8c0,1.7-0.4,3.2-1.3,4.5    c-0.9,1.3-2.2,2.4-3.9,3.2c-1.7,0.8-3.9,1.2-6.4,1.2c-2.1,0-4.2-0.3-6.2-0.8c-2-0.5-3.6-1.3-4.9-2.2l0,0l4-4.8    c0.8,0.4,1.6,0.7,2.5,1c1.6,0.5,3.1,0.8,4.6,0.8c2.8,0,4.3-0.8,4.3-2.2c0-0.8-0.4-1.4-1.2-1.8c-0.8-0.4-2.1-0.8-3.9-1.2    c-2-0.4-3.6-0.9-4.9-1.4c-1.3-0.5-2.5-1.3-3.4-2.5c-1-1.1-1.4-2.7-1.4-4.6c0-1.7,0.4-3.2,1.3-4.5c0.9-1.4,2.2-2.4,3.9-3.2    c1.7-0.8,3.9-1.2,6.4-1.2c1.7,0,3.4,0.2,5.1,0.6c1.7,0.4,3.1,1,4.4,1.8l-4.1,4.9c-1.9-0.8-3.7-1.2-5.4-1.2c-1.5,0-2.6,0.2-3.2,0.7    c-0.7,0.5-1,1.1-1,1.8c0,0.7,0.4,1.3,1.2,1.7c0.8,0.4,2.1,0.8,3.9,1.1c2,0.4,3.7,0.9,5,1.4c1.3,0.5,2.5,1.3,3.4,2.4    C230.1,36.4,230.5,37.9,230.5,39.8L230.5,39.8z"/>
	</g>
</g>
</svg>
